/* XPM */
static char *_791f57cecd24ac8a81b30b284eb0a64KlC3hr4Xl7yP4zqW[] = {
/* columns rows colors chars-per-pixel */
"20 20 3 1 ",
"  c None",
". c black",
"X c gray1",
/* pixels */
"                    ",
"                    ",
"   ..............   ",
"  .X            ..  ",
"  .              .  ",
"  .      ..      .  ",
"  .      ..      .  ",
"  .      ..      .  ",
"  .      ..      .  ",
"  .  ..........  .  ",
"  .  ..........  .  ",
"  .      ..      .  ",
"  .      ..      .  ",
"  .      ..      .  ",
"  .      ..      .  ",
"  .              .  ",
"  .X            ..  ",
"   ..............   ",
"                    ",
"                    "
};
