/* XPM */
static char *_dcd36cbc163479bfcf6138a49d7dea8aX3foOeUqCgRGqq0[] = {
/* columns rows colors chars-per-pixel */
"20 20 2 1 ",
"  c None",
". c red",
/* pixels */
"                    ",
"                    ",
"                    ",
"                    ",
"    ..       ..     ",
"    ...     ...     ",
"     ...   ...      ",
"      ... ...       ",
"       .....        ",
"        ...         ",
"       .....        ",
"      ... ...       ",
"     ...   ...      ",
"    ...     ...     ",
"    ..       ..     ",
"                    ",
"                    ",
"                    ",
"                    ",
"                    "
};
